<?xml version="1.0" encoding="UTF-8"?>
<svg width="650px" height="650px" viewBox="0 0 650 650" version="1.1" xmlns="http://www.w3.org/2000/svg" xmlns:xlink="http://www.w3.org/1999/xlink">
    <title>Group</title>
    <g id="Page-1" stroke="none" stroke-width="1" fill="none" fill-rule="evenodd">
        <g id="Group">
            <circle id="Oval" fill="#E60012" cx="325" cy="325" r="325"></circle>
            <g id="Nintendo" transform="translate(25.000000, 225.000000)" fill-rule="nonzero">
                <rect id="rect80" fill="#E60012" x="0" y="0" width="600" height="200"></rect>
                <path d="M110.9662,163.0669 C70.8232,163.0533 44.000009,134.60508 44.000009,100.11229 L44.000009,100.11229 C44.000009,65.61951 70.884394,36.84492 110.905,36.9331069 L489.095,36.9331069 C529.11561,36.84491 555.99999,65.61951 555.99999,100.11229 L555.99999,100.11229 C555.99999,134.60508 529.1768,163.0533 489.03381,163.0669 L110.9662,163.0669 Z M111.08858,52.44929 C79.308712,52.51049 59.801554,73.75145 59.801554,100.0307 L59.801554,100.0307 C59.801554,126.30315 79.186324,147.72091 111.08858,147.605786 L488.91142,147.605786 C520.81368,147.71411 540.20525,126.30315 540.20525,100.0307 L540.20525,100.0307 C540.20525,73.75825 520.69809,52.51728 488.91822,52.45608 L111.08858,52.44929 Z M509.23449,74.62856 C512.12419,74.62856 513.55884,75.60766 513.55884,77.54546 C513.55884,78.87812 512.72932,79.88441 511.34907,80.23118 L513.61323,84.7527 L510.87312,84.7527 L508.93532,80.60514 L507.73185,80.60514 L507.73185,84.7527 L505.26371,84.7527 L505.26371,74.62856 L509.23449,74.62856 Z M509.01011,70.67138 C503.96504,70.67138 499.87187,74.76455 499.87187,79.80962 C499.87187,84.85469 503.96504,88.94786 509.01011,88.94786 C514.05519,88.94786 518.14836,84.85469 518.14836,79.80962 C518.14836,74.76455 514.05519,70.67138 509.01011,70.67138 Z M516.40094,79.81642 C516.40094,83.89599 513.08969,87.20725 509.01011,87.20725 C504.93054,87.20725 501.61929,83.89599 501.61929,79.81642 C501.61929,75.73685 504.93054,72.42559 509.01011,72.42559 C513.08969,72.42559 516.40094,75.73005 516.40094,79.81642 Z M507.73185,79.12289 L508.93532,79.12289 C510.34277,79.12289 511.0227,78.69454 511.0227,77.68824 C511.0227,76.63435 510.29518,76.1788 508.81293,76.1788 L507.73185,76.1788 L507.73185,79.12289 Z M301.19668,103.8655 C301.16948,100.40466 301.24428,98.09291 302.37975,96.12111 C303.77361,93.68697 306.33694,92.53109 308.66229,92.51749 L308.65529,92.51749 C310.98065,92.53109 313.54398,93.68697 314.93784,96.12111 C316.07332,98.0997 316.12091,100.41146 316.09372,103.8723 L301.19668,103.8655 Z M316.03272,115.77105 C316.03272,115.77105 316.04632,115.94784 316.04632,118.1644 C316.04632,125.38525 311.29362,126.98988 308.65549,126.98988 C306.01737,126.98988 301.18308,125.38525 301.18308,118.1644 C301.18308,116.00223 301.19668,110.01206 301.19668,110.01206 C301.19668,110.01206 334.83275,110.02566 334.83275,110.00506 C334.83275,97.75954 323.00879,87.615 308.48551,87.615 C293.96223,87.615 282.19267,97.54196 282.19267,109.78748 C282.19267,122.033 293.96223,131.95316 308.48551,131.95316 C320.53385,131.95316 330.71238,125.07908 333.81966,115.75726 L316.03272,115.77105 Z M372.21524,88.27473 C378.89214,88.08435 392.43632,92.4563 392.341629,108.08786 C392.32753,110.86197 392.33413,129.57361 392.33413,129.57361 L374.59479,129.57361 C374.59479,129.57361 374.59479,106.10927 374.59479,103.64112 C374.59479,100.20068 371.30393,96.37269 366.43564,96.37269 C361.57415,96.37269 357.95693,100.20068 357.95693,103.64112 C357.95693,105.32735 357.97733,129.57361 357.97733,129.57361 L340.25159,129.57361 L340.26519,90.09014 L357.98414,90.07654 C357.98414,90.07654 357.96374,93.2518 357.98414,94.2309 C361.39738,90.97404 366.32007,88.44471 372.21505,88.27472 L372.21524,88.27473 Z M227.10483,88.27473 C233.78173,88.08435 247.32592,92.4563 247.231229,108.08786 C247.21713,110.86197 247.22373,129.57361 247.22373,129.57361 L229.48438,129.57361 C229.48438,129.57361 229.48438,106.10927 229.48438,103.64112 C229.48438,100.20068 226.19353,96.37269 221.32524,96.37269 C216.46375,96.37269 212.84653,100.20068 212.84653,103.64112 C212.84653,105.32735 212.86693,129.57361 212.86693,129.57361 L195.14119,129.57361 L195.13419,90.09014 L212.87353,90.07654 C212.87353,90.07654 212.85313,93.2518 212.87353,94.2309 C216.28678,90.97404 221.20266,88.44471 227.10444,88.27472 L227.10483,88.27473 Z M430.8251,70.20903 L448.44886,70.20903 L448.44886,129.58721 L430.7979,129.58721 C430.7979,129.58721 430.7909,127.66981 430.7909,127.30265 C423.95762,131.593 416.24723,131.5862 410.24346,128.78489 C408.63202,128.03697 398.03193,122.9511 398.03193,109.20974 C398.03193,98.78643 407.86371,87.40442 420.73476,88.53311 C424.97071,88.90707 427.9828,90.45051 430.8385,92.05514 C430.8249,82.91689 430.8249,70.20903 430.8249,70.20903 L430.8251,70.20903 Z M430.95429,109.6449 C430.95429,109.6449 430.95429,104.69501 430.95429,102.58723 C430.95429,96.48147 426.73873,94.92444 423.96462,94.92444 C421.12252,94.92444 416.96135,96.48147 416.96135,102.58723 C416.96135,104.61342 416.96835,109.6245 416.96835,109.6245 C416.96835,109.6245 416.96135,114.54718 416.96135,116.64816 C416.96135,122.74712 421.12252,124.34496 423.95782,124.34496 C426.73873,124.34496 430.96109,122.74712 430.96109,116.64816 C430.96109,114.11203 430.95409,109.6449 430.95409,109.6449 L430.95429,109.6449 Z M487.53116,109.52931 C487.53116,109.52931 487.52416,115.49908 487.52416,117.89243 C487.52416,124.18857 483.80495,126.7859 480.22853,126.7859 C476.6453,126.7859 472.91249,124.18857 472.91249,117.89243 C472.91249,115.49908 472.91949,109.37972 472.91949,109.37972 C472.91949,109.37972 472.93309,103.53914 472.93309,101.14579 C472.93309,94.87684 476.6727,92.29991 480.22873,92.29991 C483.79155,92.29991 487.52436,94.87684 487.52436,101.14579 C487.52436,103.53914 487.51736,107.96547 487.53796,109.54971 L487.53116,109.52931 Z M480.35791,87.40442 C465.94342,87.40442 454.26225,97.33139 454.26225,109.5769 C454.26225,121.82242 465.95022,131.74938 480.35791,131.74938 C494.7724,131.74938 506.45358,121.82242 506.45358,109.5769 C506.45358,97.33139 494.7724,87.40442 480.35791,87.40442 Z M167.40709,82.33216 L167.40709,70.19543 L185.30281,70.19543 L185.30281,82.33216 L167.40709,82.33216 Z M167.44789,129.58741 L167.44789,90.09694 L185.30282,90.10394 L185.30282,129.58741 L167.44789,129.58741 Z M257.02851,129.58721 L257.03551,90.17853 L247.32613,90.17853 L247.32613,84.31755 L257.04231,84.31055 L257.02871,76.31459 L274.89724,76.31459 L274.89724,84.30375 L284.56583,84.30375 L284.56583,90.17833 L274.89724,90.17833 L274.91084,129.58721 L257.02851,129.58721 Z M94.783901,129.58721 L94.790701,70.20903 L113.29156,70.20903 L138.88408,111.61669 L138.87048,70.20903 L157.22856,70.20903 L157.22856,129.58721 L138.89767,129.58721 L113.16917,88.17954 L113.16917,129.58721 L94.783901,129.58721 Z" id="path29" fill="#FFFFFF"></path>
            </g>
        </g>
    </g>
</svg>